Coordinates
version=1
nRows=12
nColumns=24
inDegrees=yes

Units are S.I. units (second, meters, Newtons, ...)
Angles are in degrees.

endheader
time	pelvis_tilt	pelvis_list	pelvis_rotation	pelvis_tx	pelvis_ty	pelvis_tz	hip_flexion_r	hip_adduction_r	hip_rotation_r	knee_angle_r	ankle_angle_r	subtalar_angle_r	mtp_angle_r	hip_flexion_l	hip_adduction_l	hip_rotation_l	knee_angle_l	ankle_angle_l	subtalar_angle_l	mtp_angle_l	lumbar_extension	lumbar_bending	lumbar_rotation
      0.56700000	     -2.34423741	      5.44953798	      6.66888887	     -0.77035411	      0.95369021	      0.31270028	     32.69565487	     -6.22658464	     -6.07235462	     -7.16185543	      8.50310757	     -4.25156460	      0.75096154	    -19.43891794	      7.23093588	      8.76169793	     -1.27828499	     14.07069928	     -7.73507630	      0.13079129	      0.86506565	     -4.10406496	     -2.70496209
      0.57116667	     -2.40419519	      5.34543911	      6.73303927	     -0.76407959	      0.95253563	      0.31285924	     32.91705448	     -6.13963371	     -6.10339242	     -7.68307103	      8.30607279	     -4.67623831	      5.48751437	    -19.67105673	      7.05614751	      8.57865546	     -1.45647788	     14.17773865	     -7.42353078	     -1.06421343	      0.98213018	     -3.96920607	     -2.69106929
      0.57533333	     -2.47485836	      5.24398870	      6.80772333	     -0.75778830	      0.95139582	      0.31301513	     33.16247965	     -6.06126383	     -6.11411654	     -8.30666276	      8.21207007	     -5.01035282	      5.48720615	    -19.88179577	      6.88204825	      8.44613164	     -1.65273122	     14.24729245	     -7.18071136	     -1.04552643	      1.09820696	     -3.85150674	     -2.77583106
      0.57950000	     -2.54834477	      5.13128827	      6.85358436	     -0.75144633	      0.95027725	      0.31321814	     33.39597044	     -5.94874689	     -6.02239723	     -8.94160484	      8.01697851	     -5.53267029	      5.48682688	    -20.06963280	      6.70591083	      8.23518901	     -1.88846851	     14.32418902	     -6.86761497	     -1.00853257	      1.24571071	     -3.70378544	     -2.85356798
      0.58366667	     -2.56796070	      5.01415230	      6.88319636	     -0.74502487	      0.94924138	      0.31339824	     33.60055173	     -5.83960835	     -6.05374767	     -9.68333492	      7.78930722	     -5.77498444	      5.48160712	    -20.34808070	      6.52541164	      8.12563436	     -2.05784684	     14.27747773	     -6.81551950	     -0.99956131	      1.32613906	     -3.55033275	     -2.87790549
      0.58783333	     -2.71138017	      4.89265369	      6.92232515	     -0.73861969	      0.94810036	      0.31366036	     33.89999785	     -5.70464252	     -5.83890186	    -10.39249593	      7.49883754	     -6.55924824	      5.48244509	    -20.40077751	      6.35272628	      7.85697827	     -2.41111896	     14.37680849	     -6.37960387	     -0.92927598	      1.56101915	     -3.39732529	     -2.95729162
      0.59200000	     -2.77482775	      4.75075882	      6.93174518	     -0.73212274	      0.94708684	      0.31393286	     34.12253445	     -5.54028868	     -5.70924089	    -11.15228506	      7.14446657	     -7.15713338	      5.48311038	    -20.56164432	      6.15752479	      7.62129123	     -2.71366642	     14.38047442	     -6.09653923	     -0.84258459	      1.69872052	     -3.21855394	     -2.97607790
      0.59616667	     -2.86304403	      4.61547978	      6.93524265	     -0.72559928	      0.94607264	      0.31420985	     34.38509935	     -5.38360759	     -5.58574227	    -11.97322908	      6.77006432	     -7.71601478	      5.48367908	    -20.68604190	      5.97724908	      7.41207772	     -3.04014624	     14.36863980	     -5.87536771	     -0.74501159	      1.87216737	     -3.04251292	     -3.00076692
      0.60033333	     -2.94705274	      4.47413335	      6.92507757	     -0.71901994	      0.94511173	      0.31451500	     34.63602669	     -5.21037478	     -5.45163629	    -12.80839833	      6.34169320	     -8.29966155	      5.48240545	    -20.80035824	      5.79492538	      7.19736613	     -3.38867079	     14.31139811	     -5.66619389	     -0.63083732	      2.05031251	     -2.86055935	     -3.01278287
      0.60450000	     -3.03719125	      4.32405803	      6.90764454	     -0.71240998	      0.94418429	      0.31483349	     34.89061650	     -5.02263974	     -5.30735861	    -13.65931879	      5.88681496	     -8.90328462	      5.47957787	    -20.88857171	      5.60819214	      6.96622776	     -3.77558761	     14.24472674	     -5.45843408	     -0.48579527	      2.23526052	     -2.66601448	     -3.01593707
      0.60866667	     -3.11441111	      4.16355987	      6.88339038	     -0.70575835	      0.94333369	      0.31518137	     35.12444182	     -4.81668585	     -5.16607580	    -14.52301324	      5.42809045	     -9.53797636	      5.47601800	    -20.96254300	      5.41166923	      6.71685887	     -4.21128349	     14.13634327	     -5.24903074	     -0.27235684	      2.40385811	     -2.46048734	     -3.00700834
      0.61283333	     -3.13749135	      4.01565434	      6.83720784	     -0.69903040	      0.94257096	      0.31548368	     35.33728576	     -4.63777923	     -5.17048465	    -15.48291268	      5.01195644	     -9.73981442	      5.46749766	    -21.13890776	      5.23452447	      6.58100981	     -4.56476961	     13.93192597	     -5.25870939	     -0.24476767	      2.52120986	     -2.25562510	     -3.01928896
